<svg width="24" height="24" viewBox="0 0 24 24" fill="none" xmlns="http://www.w3.org/2000/svg">
<path d="M7.11315 1.83313C7.26281 1.38964 7.67871 1.09106 8.14677 1.09106H14.9999L7.88676 22.1673C7.73708 22.6107 7.32119 22.9093 6.85313 22.9093H1.51949C0.773167 22.9093 0.247207 22.1766 0.485867 21.4695L7.11315 1.83313Z" fill="url(#paint0_linear_2014_21422)"/>
<path d="M18.0689 15.2727H7.26834C6.81453 15.2727 6.59542 15.8286 6.92718 16.1382L13.8673 22.6156C14.0693 22.8042 14.3353 22.9091 14.6116 22.9091H20.7271L18.0689 15.2727Z" fill="#0078D4"/>
<path d="M8.14677 1.09106C7.67871 1.09106 7.26281 1.38964 7.11315 1.83313L0.485867 21.4695C0.247207 22.1766 0.773167 22.9093 1.51949 22.9093H6.85313C7.32119 22.9093 7.73708 22.6107 7.88676 22.1673L9.20428 18.2634L13.8673 22.6155C14.0693 22.8042 14.3353 22.909 14.6117 22.909H20.7271L18.0689 15.2726H10.2137L14.9999 1.09106H8.14677Z" fill="url(#paint1_linear_2014_21422)"/>
<path d="M16.8866 1.83312C16.737 1.38964 16.3211 1.09106 15.853 1.09106H8.18164H8.21664C8.68469 1.09106 9.1006 1.38964 9.25027 1.83312L15.8775 21.4695C16.1162 22.1766 15.5902 22.9093 14.8439 22.9093H14.7271H22.4803C23.2266 22.9093 23.7526 22.1766 23.5139 21.4695L16.8866 1.83312Z" fill="url(#paint2_linear_2014_21422)"/>
<defs>
<linearGradient id="paint0_linear_2014_21422" x1="8.10008" y1="1.84627" x2="0.984155" y2="22.8685" gradientUnits="userSpaceOnUse">
<stop stop-color="#114A8B"/>
<stop offset="1" stop-color="#0669BC"/>
</linearGradient>
<linearGradient id="paint1_linear_2014_21422" x1="13.7869" y1="15.2751" x2="12.1426" y2="15.8311" gradientUnits="userSpaceOnUse">
<stop stop-opacity="0.3"/>
<stop offset="0.0711768" stop-opacity="0.2"/>
<stop offset="0.321031" stop-opacity="0.1"/>
<stop offset="0.623053" stop-opacity="0.05"/>
<stop offset="1" stop-opacity="0"/>
</linearGradient>
<linearGradient id="paint2_linear_2014_21422" x1="12.6114" y1="1.84631" x2="20.4223" y2="22.6569" gradientUnits="userSpaceOnUse">
<stop stop-color="#3CCBF4"/>
<stop offset="1" stop-color="#2892DF"/>
</linearGradient>
</defs>
</svg>
